<svg width="292" height="71" viewBox="0 0 292 71" xmlns="http://www.w3.org/2000/svg" xmlns:xlink="http://www.w3.org/1999/xlink"><title>E355B0BC-141D-465A-88C6-68D7B4F4B4B6</title><defs><path id="a" d="M0 70.87h291.953V0H0v70.87z"/></defs><g transform="translate(0 -.07)" fill="none" fill-rule="evenodd"><path d="M219.51 2.355c-15.512 0-29.738 14.567-36.927 23.384-7.19-8.818-21.415-23.385-36.928-23.385-18.114 0-32.856 14.742-32.856 32.856 0 18.115 14.74 32.857 32.855 32.857 15.513 0 29.74-14.567 36.928-23.384 7.18 8.81 21.415 23.384 36.928 23.384 18.115 0 32.857-14.742 32.857-32.856 0-18.113-14.742-32.855-32.856-32.855zm-74.124 55.668c-12.58 0-22.812-10.237-22.812-22.812 0-12.58 10.24-22.82 22.812-22.82 11.724 0 25.196 14.29 31.776 22.82-6.58 8.532-20.052 22.813-31.776 22.813zm74.394 0c-11.724 0-25.204-14.29-31.784-22.82 6.565-8.53 20.02-22.812 31.784-22.812 12.58 0 22.812 10.24 22.812 22.82 0 12.582-10.23 22.813-22.812 22.813z" fill="#00A8A0"/><mask id="b" fill="#fff"><use xlink:href="#a"/></mask><path d="M0 66.823h9.474V4.045H0v62.778zM17.998 67.047V0L63.78 47.897V4.27h9.473v66.6L27.47 23.094v43.952H18zM92.34 3.555v53.873h18.458v8.905H82.865V3.555h9.474zM266.215 32.057h3.538c8.7 0 13.05-3.348 13.05-10.043 0-6.478-4.485-9.718-13.457-9.718h-3.13v19.76zm0 8.782V66.33h-9.473V3.555h10.733c5.26 0 9.23.365 11.914 1.098 2.71.73 5.095 2.114 7.154 4.146 3.606 3.524 5.41 7.97 5.41 13.336 0 5.747-1.927 10.3-5.775 13.66-3.85 3.363-9.04 5.043-15.574 5.043h-4.39z" fill="#394066" mask="url(#b)"/></g></svg>