<?xml version="1.0" encoding="UTF-8" standalone="no"?>
<svg width="292px" height="71px" viewBox="0 0 292 71" version="1.1" xmlns="http://www.w3.org/2000/svg" xmlns:xlink="http://www.w3.org/1999/xlink">
    <!-- Generator: sketchtool 3.6.1 (26313) - http://www.bohemiancoding.com/sketch -->
    <title>E355B0BC-141D-465A-88C6-68D7B4F4B4B6</title>
    <desc>Created with sketchtool.</desc>
    <defs>
        <path id="path-1" d="M-2.84217094e-14,70.8689292 L291.952677,70.8689292 L291.952677,0 L-2.84217094e-14,0 L-2.84217094e-14,70.8689292 Z"></path>
    </defs>
    <g id="Page-1" stroke="none" stroke-width="1" fill="none" fill-rule="evenodd">
        <g id="SIGNIN---UNAME" transform="translate(-214.000000, -166.000000)">
            <g id="logo" transform="translate(214.000000, 165.929688)">
                <path d="M219.510631,2.35484929 C203.998202,2.35484929 189.771577,16.9220107 182.582995,25.7390784 C175.394413,16.9220107 161.167788,2.35484929 145.655359,2.35484929 C127.541299,2.35484929 112.799151,17.0969967 112.799151,35.2110571 C112.799151,53.3246886 127.541299,68.0668361 145.655359,68.0668361 C161.167788,68.0668361 175.394413,53.4996747 182.582995,44.6830359 C189.764286,53.4923836 203.998202,68.0668361 219.510631,68.0668361 C237.624692,68.0668361 252.366839,53.3246886 252.366839,35.2110571 C252.366839,17.0969967 237.624692,2.35484929 219.510631,2.35484929 L219.510631,2.35484929 Z M145.386447,58.0231504 C132.805463,58.0231504 122.574353,47.7860364 122.574353,35.2110571 C122.574353,22.6300734 132.813183,12.3912439 145.386447,12.3912439 C157.110084,12.3912439 170.581867,26.6804862 177.162287,35.2110571 C170.581867,43.741628 157.110084,58.0231504 145.386447,58.0231504 L145.386447,58.0231504 Z M219.779973,58.0231504 C208.055906,58.0231504 194.576403,43.733908 187.995983,35.2033372 C194.560534,26.6744818 208.016448,12.3912439 219.779973,12.3912439 C232.360956,12.3912439 242.592066,22.6300734 242.592066,35.2110571 C242.592066,47.7920408 232.360956,58.0231504 219.779973,58.0231504 L219.779973,58.0231504 Z" id="Fill-1" fill="#00A8A0"></path>
                <mask id="mask-2" fill="white">
                    <use xlink:href="#path-1"></use>
                </mask>
                <g id="Clip-4"></g>
                <path d="M-2.84217094e-14,66.8232341 L9.47369432,66.8232341 L9.47369432,4.04526619 L-2.84217094e-14,4.04526619 L-2.84217094e-14,66.8232341 Z" id="Fill-3" fill="#394066" mask="url(#mask-2)"></path>
                <path d="M17.9976174,67.0470704 L17.9976174,-4.28887424e-05 L63.7800634,47.896818 L63.7800634,4.26910254 L73.2528999,4.26910254 L73.2528999,70.8688863 L27.4713118,23.0946872 L27.4713118,67.0470704 L17.9976174,67.0470704 Z" id="Fill-5" fill="#394066" mask="url(#mask-2)"></path>
                <path d="M92.338519,3.55457609 L92.338519,57.4279833 L110.797834,57.4279833 L110.797834,66.332544 L82.8648247,66.332544 L82.8648247,3.55457609 L92.338519,3.55457609 Z" id="Fill-6" fill="#394066" mask="url(#mask-2)"></path>
                <path d="M266.215228,32.0567188 L269.752692,32.0567188 C278.453531,32.0567188 282.804165,28.7092524 282.804165,22.0138908 C282.804165,15.5359752 278.318002,12.2961596 269.346106,12.2961596 L266.215228,12.2961596 L266.215228,32.0567188 Z M266.215228,40.8390466 L266.215228,66.3321151 L256.741534,66.3321151 L256.741534,3.55457609 L267.475299,3.55457609 C272.733888,3.55457609 276.705386,3.92041706 279.388934,4.65252789 C282.099074,5.38420984 284.484546,6.76651401 286.544492,8.7994404 C290.14972,12.3236084 291.952762,16.7685976 291.952762,22.1356949 C291.952762,27.8827864 290.027487,32.436713 286.17908,35.7974749 C282.329386,39.1586656 277.138562,40.8390466 270.606178,40.8390466 L266.215228,40.8390466 Z" id="Fill-7" fill="#394066" mask="url(#mask-2)"></path>
            </g>
        </g>
    </g>
</svg>